<mxfile host="app.diagrams.net" modified="2024-02-17T17:39:08.147Z" agent="Mozilla/5.0 (Windows NT 10.0; Win64; x64) AppleWebKit/537.36 (KHTML, like Gecko) Chrome/121.0.0.0 Safari/537.36 Edg/121.0.0.0" etag="nnPHTH03xh8J1LN_d6Tv" version="23.1.5" type="device">
  <diagram name="Página-1" id="Ji3xSlNN6pLTA0bCxrRR">
    <mxGraphModel dx="1426" dy="793" grid="1" gridSize="10" guides="1" tooltips="1" connect="1" arrows="1" fold="1" page="1" pageScale="1" pageWidth="827" pageHeight="1169" math="0" shadow="0">
      <root>
        <mxCell id="0" />
        <mxCell id="1" parent="0" />
        <mxCell id="GAZZX1Dz99UiMktd5PBd-117" value="" style="edgeStyle=orthogonalEdgeStyle;rounded=0;orthogonalLoop=1;jettySize=auto;html=1;" edge="1" parent="1" source="GAZZX1Dz99UiMktd5PBd-2" target="GAZZX1Dz99UiMktd5PBd-114">
          <mxGeometry relative="1" as="geometry" />
        </mxCell>
        <mxCell id="GAZZX1Dz99UiMktd5PBd-2" value="Despertar a las 7:00 am" style="rounded=0;whiteSpace=wrap;html=1;" vertex="1" parent="1">
          <mxGeometry x="405" y="280" width="120" height="60" as="geometry" />
        </mxCell>
        <mxCell id="GAZZX1Dz99UiMktd5PBd-101" value="" style="edgeStyle=orthogonalEdgeStyle;rounded=0;orthogonalLoop=1;jettySize=auto;html=1;" edge="1" parent="1" source="GAZZX1Dz99UiMktd5PBd-3" target="GAZZX1Dz99UiMktd5PBd-28">
          <mxGeometry relative="1" as="geometry" />
        </mxCell>
        <mxCell id="GAZZX1Dz99UiMktd5PBd-3" value="buscar lata de face" style="rounded=0;whiteSpace=wrap;html=1;" vertex="1" parent="1">
          <mxGeometry x="405" y="540" width="120" height="60" as="geometry" />
        </mxCell>
        <mxCell id="GAZZX1Dz99UiMktd5PBd-103" value="" style="edgeStyle=orthogonalEdgeStyle;rounded=0;orthogonalLoop=1;jettySize=auto;html=1;" edge="1" parent="1" source="GAZZX1Dz99UiMktd5PBd-5" target="GAZZX1Dz99UiMktd5PBd-7">
          <mxGeometry relative="1" as="geometry" />
        </mxCell>
        <mxCell id="GAZZX1Dz99UiMktd5PBd-5" value="colocar tetera en la estufa" style="rounded=0;whiteSpace=wrap;html=1;" vertex="1" parent="1">
          <mxGeometry x="405" y="1080" width="120" height="60" as="geometry" />
        </mxCell>
        <mxCell id="GAZZX1Dz99UiMktd5PBd-102" value="" style="edgeStyle=orthogonalEdgeStyle;rounded=0;orthogonalLoop=1;jettySize=auto;html=1;" edge="1" parent="1" source="GAZZX1Dz99UiMktd5PBd-6" target="GAZZX1Dz99UiMktd5PBd-5">
          <mxGeometry relative="1" as="geometry" />
        </mxCell>
        <mxCell id="GAZZX1Dz99UiMktd5PBd-6" value="Verter agua dentro de tetera" style="rounded=0;whiteSpace=wrap;html=1;" vertex="1" parent="1">
          <mxGeometry x="405" y="990" width="120" height="60" as="geometry" />
        </mxCell>
        <mxCell id="GAZZX1Dz99UiMktd5PBd-7" value="Esperar a que hierva el agua" style="rounded=0;whiteSpace=wrap;html=1;" vertex="1" parent="1">
          <mxGeometry x="405" y="1170" width="120" height="60" as="geometry" />
        </mxCell>
        <mxCell id="GAZZX1Dz99UiMktd5PBd-8" value="Verter 2 cucharadas de cafe con 2 de azucar" style="rounded=0;whiteSpace=wrap;html=1;" vertex="1" parent="1">
          <mxGeometry x="250" y="1460" width="120" height="60" as="geometry" />
        </mxCell>
        <mxCell id="GAZZX1Dz99UiMktd5PBd-104" value="" style="edgeStyle=orthogonalEdgeStyle;rounded=0;orthogonalLoop=1;jettySize=auto;html=1;" edge="1" parent="1" source="GAZZX1Dz99UiMktd5PBd-9" target="GAZZX1Dz99UiMktd5PBd-10">
          <mxGeometry relative="1" as="geometry" />
        </mxCell>
        <mxCell id="GAZZX1Dz99UiMktd5PBd-9" value="verter agua hervida" style="rounded=0;whiteSpace=wrap;html=1;" vertex="1" parent="1">
          <mxGeometry x="405" y="1546.5" width="120" height="60" as="geometry" />
        </mxCell>
        <mxCell id="GAZZX1Dz99UiMktd5PBd-105" value="" style="edgeStyle=orthogonalEdgeStyle;rounded=0;orthogonalLoop=1;jettySize=auto;html=1;" edge="1" parent="1" source="GAZZX1Dz99UiMktd5PBd-10" target="GAZZX1Dz99UiMktd5PBd-11">
          <mxGeometry relative="1" as="geometry" />
        </mxCell>
        <mxCell id="GAZZX1Dz99UiMktd5PBd-10" value="Revolver vigorosamente" style="rounded=0;whiteSpace=wrap;html=1;" vertex="1" parent="1">
          <mxGeometry x="405" y="1646.5" width="120" height="60" as="geometry" />
        </mxCell>
        <mxCell id="GAZZX1Dz99UiMktd5PBd-11" value="Disfrutar cafe" style="rounded=0;whiteSpace=wrap;html=1;" vertex="1" parent="1">
          <mxGeometry x="405" y="1750" width="120" height="60" as="geometry" />
        </mxCell>
        <mxCell id="GAZZX1Dz99UiMktd5PBd-12" value="Lavar taza" style="rounded=0;whiteSpace=wrap;html=1;" vertex="1" parent="1">
          <mxGeometry x="405" y="2080" width="120" height="60" as="geometry" />
        </mxCell>
        <mxCell id="GAZZX1Dz99UiMktd5PBd-28" value="hay cafe?" style="rhombus;whiteSpace=wrap;html=1;" vertex="1" parent="1">
          <mxGeometry x="425" y="630" width="80" height="80" as="geometry" />
        </mxCell>
        <mxCell id="GAZZX1Dz99UiMktd5PBd-29" value="TERMINO" style="rounded=1;whiteSpace=wrap;html=1;fillColor=#FF9999;" vertex="1" parent="1">
          <mxGeometry x="590" y="640" width="120" height="60" as="geometry" />
        </mxCell>
        <mxCell id="GAZZX1Dz99UiMktd5PBd-32" value="Hay Agua?" style="rhombus;whiteSpace=wrap;html=1;" vertex="1" parent="1">
          <mxGeometry x="425" y="750" width="80" height="80" as="geometry" />
        </mxCell>
        <mxCell id="GAZZX1Dz99UiMktd5PBd-36" value="TERMINO" style="rounded=1;whiteSpace=wrap;html=1;fillColor=#FF9999;" vertex="1" parent="1">
          <mxGeometry x="590" y="760" width="120" height="60" as="geometry" />
        </mxCell>
        <mxCell id="GAZZX1Dz99UiMktd5PBd-41" value="TERMINO" style="rounded=1;whiteSpace=wrap;html=1;fillColor=#CCFF99;" vertex="1" parent="1">
          <mxGeometry x="405" y="2176.5" width="120" height="60" as="geometry" />
        </mxCell>
        <mxCell id="GAZZX1Dz99UiMktd5PBd-42" value="Hay azucar?" style="rhombus;whiteSpace=wrap;html=1;" vertex="1" parent="1">
          <mxGeometry x="425" y="1380" width="80" height="80" as="geometry" />
        </mxCell>
        <mxCell id="GAZZX1Dz99UiMktd5PBd-120" value="" style="edgeStyle=orthogonalEdgeStyle;rounded=0;orthogonalLoop=1;jettySize=auto;html=1;" edge="1" parent="1" source="GAZZX1Dz99UiMktd5PBd-48" target="GAZZX1Dz99UiMktd5PBd-2">
          <mxGeometry relative="1" as="geometry" />
        </mxCell>
        <mxCell id="GAZZX1Dz99UiMktd5PBd-48" value="INICIO" style="rounded=1;whiteSpace=wrap;html=1;fillColor=#A9C4EB;" vertex="1" parent="1">
          <mxGeometry x="405" y="200" width="120" height="50" as="geometry" />
        </mxCell>
        <mxCell id="GAZZX1Dz99UiMktd5PBd-49" value="esta vacia?" style="rhombus;whiteSpace=wrap;html=1;" vertex="1" parent="1">
          <mxGeometry x="425" y="1846.5" width="80" height="80" as="geometry" />
        </mxCell>
        <mxCell id="GAZZX1Dz99UiMktd5PBd-52" value="NO" style="edgeStyle=elbowEdgeStyle;elbow=horizontal;endArrow=classic;html=1;curved=0;rounded=0;endSize=8;startSize=8;exitX=0.038;exitY=0.425;exitDx=0;exitDy=0;exitPerimeter=0;entryX=0;entryY=0.5;entryDx=0;entryDy=0;" edge="1" parent="1" source="GAZZX1Dz99UiMktd5PBd-49" target="GAZZX1Dz99UiMktd5PBd-11">
          <mxGeometry width="50" height="50" relative="1" as="geometry">
            <mxPoint x="390" y="1776.5" as="sourcePoint" />
            <mxPoint x="440" y="1726.5" as="targetPoint" />
            <Array as="points">
              <mxPoint x="360" y="1826.5" />
            </Array>
          </mxGeometry>
        </mxCell>
        <mxCell id="GAZZX1Dz99UiMktd5PBd-56" value="" style="edgeStyle=elbowEdgeStyle;elbow=horizontal;endArrow=classic;html=1;curved=0;rounded=0;endSize=8;startSize=8;entryX=0.5;entryY=0;entryDx=0;entryDy=0;exitX=0;exitY=0.5;exitDx=0;exitDy=0;" edge="1" parent="1" source="GAZZX1Dz99UiMktd5PBd-42" target="GAZZX1Dz99UiMktd5PBd-8">
          <mxGeometry width="50" height="50" relative="1" as="geometry">
            <mxPoint x="300" y="1406.5" as="sourcePoint" />
            <mxPoint x="350" y="1356.5" as="targetPoint" />
            <Array as="points">
              <mxPoint x="310" y="1406.5" />
            </Array>
          </mxGeometry>
        </mxCell>
        <mxCell id="GAZZX1Dz99UiMktd5PBd-57" value="SI" style="edgeLabel;html=1;align=center;verticalAlign=middle;resizable=0;points=[];" vertex="1" connectable="0" parent="GAZZX1Dz99UiMktd5PBd-56">
          <mxGeometry x="0.0303" y="1" relative="1" as="geometry">
            <mxPoint as="offset" />
          </mxGeometry>
        </mxCell>
        <mxCell id="GAZZX1Dz99UiMktd5PBd-58" value="" style="edgeStyle=elbowEdgeStyle;elbow=horizontal;endArrow=classic;html=1;curved=0;rounded=0;endSize=8;startSize=8;entryX=0;entryY=0.5;entryDx=0;entryDy=0;exitX=0.5;exitY=1;exitDx=0;exitDy=0;" edge="1" parent="1" source="GAZZX1Dz99UiMktd5PBd-8" target="GAZZX1Dz99UiMktd5PBd-9">
          <mxGeometry width="50" height="50" relative="1" as="geometry">
            <mxPoint x="310" y="1500" as="sourcePoint" />
            <mxPoint x="440" y="1536.5" as="targetPoint" />
            <Array as="points">
              <mxPoint x="310" y="1556.5" />
            </Array>
          </mxGeometry>
        </mxCell>
        <mxCell id="GAZZX1Dz99UiMktd5PBd-63" value="Disfrutar café matutino&lt;br&gt;:)" style="text;strokeColor=none;fillColor=none;html=1;fontSize=24;fontStyle=1;verticalAlign=middle;align=center;" vertex="1" parent="1">
          <mxGeometry x="417.5" y="110" width="95" height="40" as="geometry" />
        </mxCell>
        <mxCell id="GAZZX1Dz99UiMktd5PBd-66" value="Encender estufa" style="rounded=0;whiteSpace=wrap;html=1;" vertex="1" parent="1">
          <mxGeometry x="405" y="900" width="120" height="60" as="geometry" />
        </mxCell>
        <mxCell id="GAZZX1Dz99UiMktd5PBd-67" value="" style="endArrow=classic;html=1;rounded=0;exitX=0.5;exitY=1;exitDx=0;exitDy=0;entryX=0.5;entryY=0;entryDx=0;entryDy=0;" edge="1" parent="1" source="GAZZX1Dz99UiMktd5PBd-32" target="GAZZX1Dz99UiMktd5PBd-66">
          <mxGeometry width="50" height="50" relative="1" as="geometry">
            <mxPoint x="390" y="1060" as="sourcePoint" />
            <mxPoint x="440" y="1010" as="targetPoint" />
          </mxGeometry>
        </mxCell>
        <mxCell id="GAZZX1Dz99UiMktd5PBd-68" value="SI" style="edgeLabel;html=1;align=center;verticalAlign=middle;resizable=0;points=[];" vertex="1" connectable="0" parent="GAZZX1Dz99UiMktd5PBd-67">
          <mxGeometry x="-0.35" y="4" relative="1" as="geometry">
            <mxPoint as="offset" />
          </mxGeometry>
        </mxCell>
        <mxCell id="GAZZX1Dz99UiMktd5PBd-69" value="" style="endArrow=classic;html=1;rounded=0;exitX=0.5;exitY=1;exitDx=0;exitDy=0;entryX=0.5;entryY=0;entryDx=0;entryDy=0;" edge="1" parent="1" source="GAZZX1Dz99UiMktd5PBd-66" target="GAZZX1Dz99UiMktd5PBd-6">
          <mxGeometry width="50" height="50" relative="1" as="geometry">
            <mxPoint x="390" y="1060" as="sourcePoint" />
            <mxPoint x="440" y="1010" as="targetPoint" />
          </mxGeometry>
        </mxCell>
        <mxCell id="GAZZX1Dz99UiMktd5PBd-70" value="satisfecho?" style="rhombus;whiteSpace=wrap;html=1;" vertex="1" parent="1">
          <mxGeometry x="425" y="1960" width="80" height="80" as="geometry" />
        </mxCell>
        <mxCell id="GAZZX1Dz99UiMktd5PBd-73" value="" style="endArrow=classic;html=1;rounded=0;exitX=0.5;exitY=1;exitDx=0;exitDy=0;entryX=0.5;entryY=0;entryDx=0;entryDy=0;" edge="1" parent="1" source="GAZZX1Dz99UiMktd5PBd-49" target="GAZZX1Dz99UiMktd5PBd-70">
          <mxGeometry width="50" height="50" relative="1" as="geometry">
            <mxPoint x="390" y="2080" as="sourcePoint" />
            <mxPoint x="440" y="2030" as="targetPoint" />
          </mxGeometry>
        </mxCell>
        <mxCell id="GAZZX1Dz99UiMktd5PBd-77" value="SI" style="edgeLabel;html=1;align=center;verticalAlign=middle;resizable=0;points=[];" vertex="1" connectable="0" parent="GAZZX1Dz99UiMktd5PBd-73">
          <mxGeometry x="-0.0149" y="4" relative="1" as="geometry">
            <mxPoint as="offset" />
          </mxGeometry>
        </mxCell>
        <mxCell id="GAZZX1Dz99UiMktd5PBd-75" value="" style="endArrow=classic;html=1;rounded=0;exitX=0.5;exitY=1;exitDx=0;exitDy=0;entryX=0.5;entryY=0;entryDx=0;entryDy=0;" edge="1" parent="1" source="GAZZX1Dz99UiMktd5PBd-70" target="GAZZX1Dz99UiMktd5PBd-12">
          <mxGeometry width="50" height="50" relative="1" as="geometry">
            <mxPoint x="390" y="2080" as="sourcePoint" />
            <mxPoint x="440" y="2030" as="targetPoint" />
          </mxGeometry>
        </mxCell>
        <mxCell id="GAZZX1Dz99UiMktd5PBd-76" value="SI" style="edgeLabel;html=1;align=center;verticalAlign=middle;resizable=0;points=[];" vertex="1" connectable="0" parent="GAZZX1Dz99UiMktd5PBd-75">
          <mxGeometry x="-0.15" relative="1" as="geometry">
            <mxPoint as="offset" />
          </mxGeometry>
        </mxCell>
        <mxCell id="GAZZX1Dz99UiMktd5PBd-78" value="Verter 2 cucharadas de cafe" style="rounded=0;whiteSpace=wrap;html=1;" vertex="1" parent="1">
          <mxGeometry x="560" y="1460" width="120" height="60" as="geometry" />
        </mxCell>
        <mxCell id="GAZZX1Dz99UiMktd5PBd-79" value="" style="edgeStyle=elbowEdgeStyle;elbow=horizontal;endArrow=classic;html=1;curved=0;rounded=0;endSize=8;startSize=8;exitX=1;exitY=0.5;exitDx=0;exitDy=0;entryX=0.5;entryY=0;entryDx=0;entryDy=0;" edge="1" parent="1" source="GAZZX1Dz99UiMktd5PBd-42" target="GAZZX1Dz99UiMktd5PBd-78">
          <mxGeometry width="50" height="50" relative="1" as="geometry">
            <mxPoint x="390" y="1680" as="sourcePoint" />
            <mxPoint x="620" y="1440" as="targetPoint" />
            <Array as="points">
              <mxPoint x="620" y="1410" />
            </Array>
          </mxGeometry>
        </mxCell>
        <mxCell id="GAZZX1Dz99UiMktd5PBd-82" value="NO" style="edgeLabel;html=1;align=center;verticalAlign=middle;resizable=0;points=[];" vertex="1" connectable="0" parent="GAZZX1Dz99UiMktd5PBd-79">
          <mxGeometry x="0.0057" relative="1" as="geometry">
            <mxPoint y="1" as="offset" />
          </mxGeometry>
        </mxCell>
        <mxCell id="GAZZX1Dz99UiMktd5PBd-80" value="" style="edgeStyle=elbowEdgeStyle;elbow=horizontal;endArrow=classic;html=1;curved=0;rounded=0;endSize=8;startSize=8;exitX=0.5;exitY=1;exitDx=0;exitDy=0;entryX=1;entryY=0.5;entryDx=0;entryDy=0;" edge="1" parent="1" source="GAZZX1Dz99UiMktd5PBd-78" target="GAZZX1Dz99UiMktd5PBd-9">
          <mxGeometry width="50" height="50" relative="1" as="geometry">
            <mxPoint x="390" y="1680" as="sourcePoint" />
            <mxPoint x="440" y="1630" as="targetPoint" />
            <Array as="points">
              <mxPoint x="620" y="1540" />
            </Array>
          </mxGeometry>
        </mxCell>
        <mxCell id="GAZZX1Dz99UiMktd5PBd-81" value="NO" style="edgeStyle=elbowEdgeStyle;elbow=vertical;endArrow=classic;html=1;curved=0;rounded=0;endSize=8;startSize=8;exitX=1;exitY=0.5;exitDx=0;exitDy=0;entryX=1;entryY=0.5;entryDx=0;entryDy=0;" edge="1" parent="1" source="GAZZX1Dz99UiMktd5PBd-70" target="GAZZX1Dz99UiMktd5PBd-3">
          <mxGeometry width="50" height="50" relative="1" as="geometry">
            <mxPoint x="390" y="1970" as="sourcePoint" />
            <mxPoint x="440" y="1920" as="targetPoint" />
            <Array as="points">
              <mxPoint x="740" y="1460" />
            </Array>
          </mxGeometry>
        </mxCell>
        <mxCell id="GAZZX1Dz99UiMktd5PBd-83" value="" style="endArrow=classic;html=1;rounded=0;exitX=0.5;exitY=1;exitDx=0;exitDy=0;entryX=0.5;entryY=0;entryDx=0;entryDy=0;" edge="1" parent="1" source="GAZZX1Dz99UiMktd5PBd-11" target="GAZZX1Dz99UiMktd5PBd-49">
          <mxGeometry width="50" height="50" relative="1" as="geometry">
            <mxPoint x="390" y="1950" as="sourcePoint" />
            <mxPoint x="440" y="1900" as="targetPoint" />
          </mxGeometry>
        </mxCell>
        <mxCell id="GAZZX1Dz99UiMktd5PBd-84" value="Hivio?" style="rhombus;whiteSpace=wrap;html=1;" vertex="1" parent="1">
          <mxGeometry x="425" y="1260" width="80" height="80" as="geometry" />
        </mxCell>
        <mxCell id="GAZZX1Dz99UiMktd5PBd-85" value="" style="edgeStyle=elbowEdgeStyle;elbow=horizontal;endArrow=classic;html=1;curved=0;rounded=0;endSize=8;startSize=8;exitX=0.5;exitY=1;exitDx=0;exitDy=0;entryX=0.5;entryY=0;entryDx=0;entryDy=0;" edge="1" parent="1" source="GAZZX1Dz99UiMktd5PBd-7" target="GAZZX1Dz99UiMktd5PBd-84">
          <mxGeometry width="50" height="50" relative="1" as="geometry">
            <mxPoint x="390" y="1410" as="sourcePoint" />
            <mxPoint x="440" y="1360" as="targetPoint" />
          </mxGeometry>
        </mxCell>
        <mxCell id="GAZZX1Dz99UiMktd5PBd-88" value="NO" style="edgeStyle=elbowEdgeStyle;elbow=horizontal;endArrow=classic;html=1;curved=0;rounded=0;endSize=8;startSize=8;exitX=0;exitY=0.5;exitDx=0;exitDy=0;entryX=0;entryY=0.5;entryDx=0;entryDy=0;" edge="1" parent="1" source="GAZZX1Dz99UiMktd5PBd-84" target="GAZZX1Dz99UiMktd5PBd-7">
          <mxGeometry width="50" height="50" relative="1" as="geometry">
            <mxPoint x="390" y="1530" as="sourcePoint" />
            <mxPoint x="440" y="1480" as="targetPoint" />
            <Array as="points">
              <mxPoint x="360" y="1250" />
            </Array>
          </mxGeometry>
        </mxCell>
        <mxCell id="GAZZX1Dz99UiMktd5PBd-89" value="" style="endArrow=classic;html=1;rounded=0;exitX=0.5;exitY=1;exitDx=0;exitDy=0;entryX=0.5;entryY=0;entryDx=0;entryDy=0;" edge="1" parent="1" source="GAZZX1Dz99UiMktd5PBd-84" target="GAZZX1Dz99UiMktd5PBd-42">
          <mxGeometry width="50" height="50" relative="1" as="geometry">
            <mxPoint x="390" y="1530" as="sourcePoint" />
            <mxPoint x="440" y="1480" as="targetPoint" />
          </mxGeometry>
        </mxCell>
        <mxCell id="GAZZX1Dz99UiMktd5PBd-90" value="SI" style="edgeLabel;html=1;align=center;verticalAlign=middle;resizable=0;points=[];" vertex="1" connectable="0" parent="GAZZX1Dz99UiMktd5PBd-89">
          <mxGeometry x="-0.15" y="1" relative="1" as="geometry">
            <mxPoint as="offset" />
          </mxGeometry>
        </mxCell>
        <mxCell id="GAZZX1Dz99UiMktd5PBd-91" value="" style="endArrow=classic;html=1;rounded=0;exitX=0.5;exitY=1;exitDx=0;exitDy=0;entryX=0.5;entryY=0;entryDx=0;entryDy=0;" edge="1" parent="1" source="GAZZX1Dz99UiMktd5PBd-28" target="GAZZX1Dz99UiMktd5PBd-32">
          <mxGeometry width="50" height="50" relative="1" as="geometry">
            <mxPoint x="390" y="920" as="sourcePoint" />
            <mxPoint x="440" y="870" as="targetPoint" />
          </mxGeometry>
        </mxCell>
        <mxCell id="GAZZX1Dz99UiMktd5PBd-92" value="SI" style="edgeLabel;html=1;align=center;verticalAlign=middle;resizable=0;points=[];" vertex="1" connectable="0" parent="GAZZX1Dz99UiMktd5PBd-91">
          <mxGeometry x="-0.475" y="-3" relative="1" as="geometry">
            <mxPoint as="offset" />
          </mxGeometry>
        </mxCell>
        <mxCell id="GAZZX1Dz99UiMktd5PBd-93" value="" style="endArrow=classic;html=1;rounded=0;entryX=0;entryY=0.5;entryDx=0;entryDy=0;exitX=1;exitY=0.5;exitDx=0;exitDy=0;" edge="1" parent="1" source="GAZZX1Dz99UiMktd5PBd-28" target="GAZZX1Dz99UiMktd5PBd-29">
          <mxGeometry width="50" height="50" relative="1" as="geometry">
            <mxPoint x="390" y="920" as="sourcePoint" />
            <mxPoint x="440" y="870" as="targetPoint" />
          </mxGeometry>
        </mxCell>
        <mxCell id="GAZZX1Dz99UiMktd5PBd-94" value="NO" style="edgeLabel;html=1;align=center;verticalAlign=middle;resizable=0;points=[];" vertex="1" connectable="0" parent="GAZZX1Dz99UiMktd5PBd-93">
          <mxGeometry x="0.3647" relative="1" as="geometry">
            <mxPoint x="-13" as="offset" />
          </mxGeometry>
        </mxCell>
        <mxCell id="GAZZX1Dz99UiMktd5PBd-95" value="" style="endArrow=classic;html=1;rounded=0;entryX=0;entryY=0.5;entryDx=0;entryDy=0;exitX=1;exitY=0.5;exitDx=0;exitDy=0;" edge="1" parent="1" source="GAZZX1Dz99UiMktd5PBd-32" target="GAZZX1Dz99UiMktd5PBd-36">
          <mxGeometry width="50" height="50" relative="1" as="geometry">
            <mxPoint x="390" y="890" as="sourcePoint" />
            <mxPoint x="440" y="840" as="targetPoint" />
          </mxGeometry>
        </mxCell>
        <mxCell id="GAZZX1Dz99UiMktd5PBd-96" value="NO" style="edgeLabel;html=1;align=center;verticalAlign=middle;resizable=0;points=[];" vertex="1" connectable="0" parent="GAZZX1Dz99UiMktd5PBd-95">
          <mxGeometry x="-0.0353" y="-2" relative="1" as="geometry">
            <mxPoint y="-2" as="offset" />
          </mxGeometry>
        </mxCell>
        <mxCell id="GAZZX1Dz99UiMktd5PBd-98" value="" style="endArrow=classic;html=1;rounded=0;entryX=0.5;entryY=0;entryDx=0;entryDy=0;exitX=0.5;exitY=1;exitDx=0;exitDy=0;" edge="1" parent="1" source="GAZZX1Dz99UiMktd5PBd-12" target="GAZZX1Dz99UiMktd5PBd-41">
          <mxGeometry width="50" height="50" relative="1" as="geometry">
            <mxPoint x="390" y="2150" as="sourcePoint" />
            <mxPoint x="440" y="2100" as="targetPoint" />
          </mxGeometry>
        </mxCell>
        <mxCell id="GAZZX1Dz99UiMktd5PBd-108" value="TERMINO" style="rounded=1;whiteSpace=wrap;html=1;fillColor=#CCFF99;" vertex="1" parent="1">
          <mxGeometry x="610" y="390" width="120" height="60" as="geometry" />
        </mxCell>
        <mxCell id="GAZZX1Dz99UiMktd5PBd-115" value="" style="edgeStyle=orthogonalEdgeStyle;rounded=0;orthogonalLoop=1;jettySize=auto;html=1;" edge="1" parent="1" source="GAZZX1Dz99UiMktd5PBd-114" target="GAZZX1Dz99UiMktd5PBd-108">
          <mxGeometry relative="1" as="geometry" />
        </mxCell>
        <mxCell id="GAZZX1Dz99UiMktd5PBd-118" value="NO" style="edgeLabel;html=1;align=center;verticalAlign=middle;resizable=0;points=[];" vertex="1" connectable="0" parent="GAZZX1Dz99UiMktd5PBd-115">
          <mxGeometry x="-0.1619" y="2" relative="1" as="geometry">
            <mxPoint as="offset" />
          </mxGeometry>
        </mxCell>
        <mxCell id="GAZZX1Dz99UiMktd5PBd-122" value="" style="edgeStyle=orthogonalEdgeStyle;rounded=0;orthogonalLoop=1;jettySize=auto;html=1;" edge="1" parent="1" source="GAZZX1Dz99UiMktd5PBd-114" target="GAZZX1Dz99UiMktd5PBd-121">
          <mxGeometry relative="1" as="geometry" />
        </mxCell>
        <mxCell id="GAZZX1Dz99UiMktd5PBd-114" value="quieres cafe?" style="rhombus;whiteSpace=wrap;html=1;" vertex="1" parent="1">
          <mxGeometry x="425" y="380" width="80" height="80" as="geometry" />
        </mxCell>
        <mxCell id="GAZZX1Dz99UiMktd5PBd-123" value="" style="edgeStyle=orthogonalEdgeStyle;rounded=0;orthogonalLoop=1;jettySize=auto;html=1;" edge="1" parent="1" source="GAZZX1Dz99UiMktd5PBd-121" target="GAZZX1Dz99UiMktd5PBd-3">
          <mxGeometry relative="1" as="geometry">
            <mxPoint x="465" y="540" as="targetPoint" />
          </mxGeometry>
        </mxCell>
        <mxCell id="GAZZX1Dz99UiMktd5PBd-121" value="Buscar taza" style="rounded=0;whiteSpace=wrap;html=1;" vertex="1" parent="1">
          <mxGeometry x="405" y="480" width="120" height="35" as="geometry" />
        </mxCell>
      </root>
    </mxGraphModel>
  </diagram>
</mxfile>
